# xmcd CD database file
#
# Track frame offsets:
#	150
#	15338
#	30258
#	40828
#	50920
#	64508
#	76315
#	94330
#	107545
#	120805
#
# Disc length: 1738 seconds
#
# Revision: 8
# Processed by: cddbd v1.5.2PL0 Copyright (c) Steve Scherf et al.
# Submitted via: CDex 1.77
#
DISCID=6a06c80a
DTITLE=GeorgeHarveyStrait,AKAKingGeorge,Poteet,TX - Merry Christmas Wherever You Are
DYEAR=1999
DGENRE=Country
TTITLE0=I Know What I Want For Christmas
TTITLE1=Old Time Christmas
TTITLE2=Let It Snow, Let It Snow, Let It Snow
TTITLE3=Jingle Bell Rock
TTITLE4=Merry Christmas (Wherever You Are)
TTITLE5=All I Want For Christmas (Is My Two Front Teeth)
TTITLE6=The Christmas Song
TTITLE7=Noel Leon
TTITLE8=Rudolph The Red-Nosed Reindeer
TTITLE9=Santa's On His Way
EXTD=YEAR: 1999
EXTT0=
EXTT1=
EXTT2=
EXTT3=
EXTT4=
EXTT5=
EXTT6=
EXTT7=
EXTT8=
EXTT9=
PLAYORDER=
